<svg xmlns="http://www.w3.org/2000/svg" viewBox="0 0 24 24" fill="none">
  <rect width="24" height="24" rx="5" fill="#00D632"/>
  <path d="M15.09 10.66c-.18-1.82-1.6-2.55-3.48-2.88V6.1l-1.38-.01v1.6c-.36 0-.73.01-1.1.02V6.1l-1.38-.01v1.7c-.3.01-.59.01-.88.01H5.2l.01 1.48s1.02-.02 1 0c.56 0 .74.33.79.61v2.58c.05 0 .11.01.18.03h-.18v3.62c-.02.18-.12.46-.49.46.02.02-1-.01-1-.01l-.27 1.65h1.6c.3 0 .59.01.88.01v1.73l1.38.01v-1.7c.38.01.74.01 1.1.01v1.69l1.38.01v-1.73c2.33-.14 3.96-.73 4.16-2.95.16-1.79-.67-2.59-2.01-2.91zm-4.58-1.48c.88 0 3.64-.28 3.64 1.28 0 1.49-2.76 1.28-3.64 1.28v-2.56zm0 7.01v-2.82c1.06 0 4.37-.3 4.37 1.41 0 1.65-3.31 1.41-4.37 1.41z" fill="white"/>
</svg>
