<svg xmlns="http://www.w3.org/2000/svg" viewBox="0 0 64 64">
  <rect width="64" height="64" rx="10" fill="#000000"/>
  <!-- Calendar body -->
  <rect x="10" y="18" width="44" height="36" rx="4" fill="#D4AF37"/>
  <!-- Header bar -->
  <rect x="10" y="18" width="44" height="12" rx="4" fill="#D4AF37" opacity="0.7"/>
  <rect x="10" y="24" width="44" height="6" fill="#D4AF37" opacity="0.7"/>
  <!-- Binding tabs -->
  <rect x="20" y="12" width="5" height="12" rx="2" fill="#D4AF37"/>
  <rect x="39" y="12" width="5" height="12" rx="2" fill="#D4AF37"/>
  <!-- Grid dots -->
  <rect x="15" y="36" width="5" height="4" rx="1" fill="#000000"/>
  <rect x="24" y="36" width="5" height="4" rx="1" fill="#000000"/>
  <rect x="33" y="36" width="5" height="4" rx="1" fill="#000000"/>
  <rect x="42" y="36" width="5" height="4" rx="1" fill="#000000"/>
  <rect x="15" y="44" width="5" height="4" rx="1" fill="#000000"/>
  <rect x="24" y="44" width="5" height="4" rx="1" fill="#000000"/>
  <rect x="33" y="44" width="5" height="4" rx="1" fill="#000000"/>
</svg>