<svg xmlns="http://www.w3.org/2000/svg" viewBox="0 0 64 64">
  <rect width="64" height="64" rx="10" fill="#000000"/>
  <!-- Left page -->
  <path d="M10 16 Q10 12 14 12 L30 14 L30 52 L14 50 Q10 50 10 46 Z" fill="#D4AF37" opacity="0.9"/>
  <!-- Right page -->
  <path d="M54 16 Q54 12 50 12 L34 14 L34 52 L50 50 Q54 50 54 46 Z" fill="#D4AF37"/>
  <!-- Spine -->
  <rect x="29" y="12" width="6" height="40" rx="1" fill="#D4AF37" opacity="0.7"/>
  <!-- Left lines -->
  <line x1="15" y1="24" x2="27" y2="24" stroke="#000000" stroke-width="1.5" opacity="0.5"/>
  <line x1="15" y1="30" x2="27" y2="30" stroke="#000000" stroke-width="1.5" opacity="0.5"/>
  <line x1="15" y1="36" x2="27" y2="36" stroke="#000000" stroke-width="1.5" opacity="0.5"/>
  <!-- Right lines -->
  <line x1="37" y1="24" x2="49" y2="24" stroke="#000000" stroke-width="1.5" opacity="0.5"/>
  <line x1="37" y1="30" x2="49" y2="30" stroke="#000000" stroke-width="1.5" opacity="0.5"/>
  <line x1="37" y1="36" x2="49" y2="36" stroke="#000000" stroke-width="1.5" opacity="0.5"/>
</svg>